Coordinates
version=1
nRows=4
nColumns=63
inDegrees=yes

Units are S.I. units (second, meters, Newtons, ...)
If the header above contains a line with 'inDegrees', this indicates whether rotational values are in degrees (yes) or radians (no).

endheader
time	pelvis_tilt	pelvis_list	pelvis_rotation	pelvis_tx	pelvis_ty	pelvis_tz	hip_flexion_r	hip_adduction_r	hip_rotation_r	knee_angle_r	knee_angle_r_beta	ankle_angle_r	subtalar_angle_r	mtp_angle_r	hip_flexion_l	hip_adduction_l	hip_rotation_l	knee_angle_l	knee_angle_l_beta	ankle_angle_l	subtalar_angle_l	mtp_angle_l	L5_S1_Flex_Ext	L5_S1_Lat_Bending	L5_S1_axial_rotation	L4_L5_Flex_Ext	L4_L5_Lat_Bending	L4_L5_axial_rotation	L3_L4_Flex_Ext	L3_L4_Lat_Bending	L3_L4_axial_rotation	L2_L3_Flex_Ext	L2_L3_Lat_Bending	L2_L3_axial_rotation	L1_L2_Flex_Ext	L1_L2_Lat_Bending	L1_L2_axial_rotation	L1_T12_Flex_Ext	L1_T12_Lat_Bending	L1_T12_axial_rotation	Abs_r3	Abs_r2	Abs_r1	Abs_t1	Abs_t2	neck_flexion	neck_bending	neck_rotation	arm_flex_r	arm_add_r	arm_rot_r	elbow_flex_r	pro_sup_r	wrist_flex_r	wrist_dev_r	arm_flex_l	arm_add_l	arm_rot_l	elbow_flex_l	pro_sup_l	wrist_flex_l	wrist_dev_l
      0.00000000	     -1.04031350	     -2.89644489	     91.66798285	      0.24683953	      0.91941268	      0.69011831	      6.98284340	     -3.28840495	    -15.55476990	     12.90028385	      0.22515243	     36.32940622	     10.75549899	      0.00000000	      9.61773731	      3.31480572	     12.01961995	     13.93603639	      0.24322972	     33.87838306	    -11.69232185	      0.00000000	      0.19881368	     -0.22793933	      1.06778399	      0.36921688	     -0.30315932	      1.13452049	      0.32663099	     -0.55421170	      1.13452049	      0.22722415	     -0.55421170	      0.93431099	      0.18461838	     -0.46481389	      0.86757449	      0.11360213	     -0.35307803	      0.80083799	      1.42010621	     -2.57849534	      5.93869420	      0.00000000	      0.00000000	     26.59550670	     -2.80959200	      3.33346281	      7.13025400	    -11.50967020	     32.04647758	     50.67120914	     62.89341647	      5.13612682	      8.86961196	     20.68208202	    -12.35516975	     68.12151955	     50.24802077	     48.99773010	      2.07924219	     -5.51192078
      0.01666667	     -1.41676562	     -3.00393572	     91.67607149	      0.24772261	      0.91987183	      0.68993698	      7.57306808	     -3.81662072	    -15.67694178	     14.03052461	      0.24487885	     36.94134914	     10.79927410	      0.00000000	      9.81210119	      3.64478318	     12.09497614	     14.19684713	      0.24778173	     33.91146656	    -11.32772289	      0.00000000	      0.19319197	     -0.30178815	      1.09121666	      0.35877680	     -0.40137824	      1.15941770	      0.31739508	     -0.73376771	      1.15941770	      0.22079910	     -0.73376771	      0.95481458	      0.17939806	     -0.61540640	      0.88661354	      0.11038989	     -0.46746985	      0.81841250	      1.37995090	     -3.41388792	      6.06901970	      0.00000000	      0.00000000	     26.63733846	     -2.47407865	      2.69810259	      7.73325967	    -12.18950949	     35.34371547	     50.51266126	     62.66031630	      6.95145881	      8.99682167	     22.18273158	    -12.43836163	     70.21026024	     49.72477376	     49.52062943	      3.43195603	     -4.25991738
      0.03333333	     -1.76203485	     -2.91018295	     91.62362164	      0.24855185	      0.92041291	      0.68970041	      7.75809935	     -4.26678841	    -15.88821426	     14.73090531	      0.25710280	     37.36403801	     11.18790192	      0.00000000	      9.88087071	      3.87066830	     11.40467481	     14.61469050	      0.25507447	     34.22626726	    -10.18266569	      0.00000000	      0.17246004	     -0.36913965	      1.13053028	      0.32027554	     -0.49095573	      1.20118842	      0.28333460	     -0.89752613	      1.20118842	      0.19710458	     -0.89752613	      0.98921400	      0.16014640	     -0.75274956	      0.91855585	      0.09854367	     -0.57179731	      0.84789771	      1.23186484	     -4.17578150	      6.28767026	      0.00000000	      0.00000000	     26.55135040	     -2.11476991	      1.80820538	      8.45966385	    -12.74522644	     38.71492414	     49.99026262	     61.10515761	      9.34160148	      7.59391582	     23.49821319	    -12.57859474	     72.14313898	     49.22898087	     49.53487927	      5.99820491	     -3.13152531
      0.05000000	     -1.88230922	     -2.89947741	     91.57678717	      0.24914297	      0.92059293	      0.68958487	      8.05834280	     -4.42040100	    -15.51493711	     15.40746525	      0.26891100	     37.66628385	     10.78789930	      0.00000000	     10.06958647	      3.69204614	      9.19194197	     14.99685834	      0.26174456	     35.10584227	     -7.11251705	      0.00000000	      0.17359235	     -0.39558174	      1.13417144	      0.32237836	     -0.52612371	      1.20505715	      0.28519488	     -0.96181744	      1.20505715	      0.19839870	     -0.96181744	      0.99240001	      0.16119786	     -0.80667028	      0.92151429	      0.09919067	     -0.61275611	      0.85062858	      1.23995282	     -4.47489974	      6.30792129	      0.00000000	      0.00000000	     26.51339371	     -1.84638162	      1.68233755	      8.93648014	    -13.30430955	     41.34228636	     50.25282725	     59.75250043	     10.40167968	      7.35565283	     24.06252767	    -12.71483386	     72.95900205	     49.08633055	     49.22735096	      7.60668960	     -2.26488665
